<svg width="960" height="520" viewBox="0 0 960 520" fill="none" xmlns="http://www.w3.org/2000/svg">
  <rect width="960" height="520" fill="#F3F1EA"/>
  <rect x="60" y="48" width="840" height="424" rx="12" fill="#FFFFFF" stroke="#D8D5CC" stroke-width="2"/>
  <rect x="92" y="88" width="240" height="320" rx="8" fill="#E1EFEC" stroke="#B7D5D0"/>
  <rect x="364" y="88" width="504" height="92" rx="8" fill="#FAFAF7" stroke="#D8D5CC"/>
  <rect x="364" y="204" width="238" height="204" rx="8" fill="#FAFAF7" stroke="#D8D5CC"/>
  <rect x="630" y="204" width="238" height="204" rx="8" fill="#FAFAF7" stroke="#D8D5CC"/>
  <rect x="118" y="124" width="168" height="14" rx="7" fill="#1B6F6A"/>
  <rect x="118" y="158" width="112" height="10" rx="5" fill="#6B8F8B"/>
  <rect x="118" y="188" width="188" height="10" rx="5" fill="#93AAA7"/>
  <rect x="118" y="214" width="132" height="10" rx="5" fill="#93AAA7"/>
  <rect x="392" y="120" width="260" height="12" rx="6" fill="#1D1D1B"/>
  <rect x="392" y="148" width="380" height="10" rx="5" fill="#8A8982"/>
  <rect x="392" y="242" width="144" height="12" rx="6" fill="#1D1D1B"/>
  <rect x="392" y="276" width="162" height="10" rx="5" fill="#8A8982"/>
  <rect x="392" y="304" width="132" height="10" rx="5" fill="#8A8982"/>
  <rect x="658" y="242" width="164" height="12" rx="6" fill="#1D1D1B"/>
  <rect x="658" y="276" width="180" height="10" rx="5" fill="#8A8982"/>
  <rect x="658" y="304" width="118" height="10" rx="5" fill="#8A8982"/>
  <circle cx="796" cy="132" r="28" fill="#D8EFEA" stroke="#1B6F6A" stroke-width="2"/>
  <path d="M786 132H806M796 122V142" stroke="#1B6F6A" stroke-width="4" stroke-linecap="round"/>
</svg>

